<?xml version="1.0" standalone="no"?>
<!DOCTYPE svg PUBLIC "-//W3C//DTD SVG 20010904//EN"
 "http://www.w3.org/TR/2001/REC-SVG-20010904/DTD/svg10.dtd">
<svg version="1.0" xmlns="http://www.w3.org/2000/svg"
 width="600.000000pt" height="600.000000pt" viewBox="0 0 600.000000 600.000000"
 preserveAspectRatio="xMidYMid meet">
<metadata>
Created by potrace 1.11, written by Peter Selinger 2001-2013
</metadata>
<g transform="translate(0.000000,600.000000) scale(0.100000,-0.100000)"
fill="#000000" stroke="none">
<path d="M590 5067 c7 -20 227 -522 300 -687 117 -262 158 -361 164 -393 4
-20 11 -37 16 -37 5 0 16 -15 24 -32 7 -18 95 -217 194 -443 99 -225 302 -686
450 -1023 l269 -614 -104 -231 c-58 -128 -116 -257 -130 -287 -14 -30 -68
-149 -120 -265 -52 -116 -105 -232 -118 -260 -46 -99 -115 -258 -115 -264 0
-12 264 -5 286 7 12 6 33 25 46 41 22 26 66 120 203 436 103 236 531 1220 545
1250 10 22 46 105 80 185 35 80 76 173 91 208 16 34 29 64 29 67 0 2 34 82 76
177 41 95 83 190 92 211 l16 38 20 -38 c68 -134 208 -265 383 -359 l52 -28
-32 -40 c-19 -23 -48 -63 -67 -91 -18 -27 -56 -75 -85 -105 -67 -70 -158 -195
-192 -263 -36 -71 -41 -208 -8 -221 15 -5 360 331 396 386 13 21 27 38 31 38
7 0 78 60 187 158 45 39 45 39 80 25 20 -8 39 -18 42 -21 4 -4 -2 -63 -12
-132 -28 -180 -41 -363 -29 -395 4 -11 3 -33 -1 -50 -9 -32 -48 -249 -55 -300
-2 -16 -6 -41 -9 -55 -8 -43 -14 -83 -20 -145 -3 -32 -10 -75 -15 -95 -10 -38
-16 -74 -25 -160 -4 -47 -45 -260 -50 -268 -4 -5 -100 36 -192 80 -93 46 -196
110 -278 172 -44 34 -54 38 -93 33 -54 -6 -87 -36 -140 -127 l-39 -68 86 -64
c47 -36 100 -74 116 -85 94 -65 311 -172 403 -198 51 -15 62 -23 62 -40 0 -44
54 -60 98 -29 18 12 38 14 105 9 45 -4 91 -9 102 -11 29 -6 281 -5 340 0 213
21 381 62 512 125 l58 29 7 -31 c6 -29 51 -76 74 -77 6 0 27 12 47 27 19 16
60 47 89 69 53 41 55 44 87 150 30 100 57 150 102 195 50 50 143 244 178 372
27 100 31 122 46 300 3 32 12 71 19 86 12 23 86 243 142 421 31 100 50 199 60
310 11 124 -45 282 -138 384 -29 33 -57 64 -63 68 -34 30 -233 152 -276 169
-29 11 -70 30 -93 43 -23 13 -79 36 -126 51 -47 15 -121 40 -165 55 -45 16
-96 31 -115 34 -19 3 -64 12 -100 20 -36 8 -78 17 -95 20 -16 3 -51 12 -76 19
-54 17 -83 8 -103 -30 -25 -49 -3 -158 60 -298 10 -22 18 -42 19 -45 12 -53
30 -63 157 -85 200 -34 246 -43 438 -90 80 -19 154 -36 165 -38 11 -2 48 -18
83 -35 74 -38 101 -75 96 -130 -11 -106 -10 -104 -81 -295 l-25 -67 -41 40
c-60 59 -205 156 -290 194 -39 18 -126 51 -192 74 -111 38 -158 52 -363 112
l-74 21 6 37 c3 20 8 51 11 67 35 195 -3 283 -141 325 -51 15 -77 18 -95 12
-28 -11 -95 -75 -200 -191 l-75 -83 -55 27 c-81 41 -162 99 -219 156 -92 92
-127 168 -136 300 -7 88 -12 83 72 60 84 -23 111 -14 120 44 15 84 24 147 29
190 3 28 10 75 15 105 5 30 12 80 16 110 3 30 8 58 11 62 2 4 28 23 57 43 105
69 279 136 396 152 19 3 51 8 70 11 44 9 255 8 340 -1 161 -18 433 -118 560
-207 91 -63 160 -76 207 -36 27 24 102 151 93 158 -3 2 -30 25 -60 50 -102 84
-232 161 -350 208 -69 28 -202 67 -255 74 -22 4 -69 12 -105 18 -85 15 -443
14 -540 -1 -104 -17 -213 -46 -289 -76 -36 -13 -66 -23 -68 -21 -2 2 1 34 7
71 10 61 30 118 80 230 10 22 47 105 81 185 34 80 66 150 71 157 15 19 -5 23
-135 21 -150 -1 -177 -11 -220 -79 -24 -39 -39 -52 -86 -70 -31 -12 -69 -28
-86 -35 -16 -7 -86 -36 -155 -64 -69 -28 -134 -55 -145 -60 -11 -5 -189 -79
-395 -164 -463 -190 -855 -352 -1020 -421 -93 -40 -128 -50 -136 -41 -6 6 -48
99 -94 206 -46 107 -93 218 -105 245 -13 28 -60 137 -106 243 -106 248 -91
236 -301 239 l-157 1 9 -21z m2280 -620 c0 -2 -21 -19 -47 -37 -27 -19 -54
-40 -61 -47 -7 -7 -17 -13 -20 -13 -4 0 -18 -10 -32 -23 -24 -21 -93 -74 -415
-317 -82 -62 -156 -121 -162 -130 -12 -17 -12 -107 1 -260 12 -138 17 -264 11
-258 -9 8 -285 561 -282 564 3 3 133 71 302 159 83 43 252 131 377 196 125 66
229 119 233 119 3 0 23 11 43 25 33 23 52 30 52 22z m-1240 -593 c47 -7 103
-16 125 -20 22 -3 41 -7 41 -7 2 -3 276 -540 327 -640 27 -54 60 -105 73 -114
22 -14 26 -14 49 1 14 9 25 20 25 24 0 4 15 23 33 42 18 19 62 71 97 115 36
44 77 93 91 110 15 16 75 89 134 160 77 94 113 130 129 130 27 -1 25 -27 -10
-103 -14 -31 -30 -67 -35 -80 -16 -41 -141 -336 -166 -392 -14 -30 -40 -91
-58 -135 -34 -83 -84 -200 -115 -270 -10 -22 -34 -80 -55 -130 -21 -49 -43
-103 -50 -120 -29 -64 -74 -188 -81 -218 -6 -29 -10 -23 -44 78 -21 61 -50
137 -64 170 -15 33 -33 74 -41 90 -21 50 -547 1267 -562 1303 l-13 32 42 -6
c24 -3 81 -12 128 -20z m760 -104 c69 -17 132 -33 140 -35 68 -15 100 -27 94
-37 -6 -9 -115 -141 -302 -367 -20 -24 -42 -51 -49 -60 -7 -9 -13 -11 -13 -6
-1 6 -3 21 -5 35 -3 23 -12 166 -20 305 -2 33 -7 93 -10 133 -7 85 -27 81 165
32z m1749 -1285 c419 -123 620 -246 715 -439 40 -80 43 -112 21 -176 -8 -23
-15 -55 -15 -71 0 -16 -21 -93 -46 -171 -52 -161 -91 -295 -98 -338 -17 -110
-320 -287 -556 -325 -161 -25 -440 -28 -440 -4 0 5 13 37 28 71 17 37 36 106
46 167 10 58 31 147 47 199 17 51 32 101 34 110 20 93 65 327 70 362 4 25 12
70 19 100 8 38 9 68 3 97 -8 33 -5 61 12 133 13 50 25 103 27 118 7 38 25 134
29 152 2 8 4 21 4 28 1 16 1 16 100 -13z"/>
</g>
</svg>
